<?xml version="1.0" encoding="utf-8"?>
<svg version="1.1" xmlns="http://www.w3.org/2000/svg" xmlns:xlink="http://www.w3.org/1999/xlink" x="0px" y="0px"
	 viewBox="0 0 523.8 523.8" style="enable-background:new 0 0 523.8 523.8;" xml:space="preserve">
<path fill="#202020" d="M189.88,225.95H46.07c0-39.71,32.19-71.91,71.91-71.91C157.69,154.04,189.88,186.23,189.88,225.95z
	 M261.79,225.95L261.79,225.95c0,39.71-32.19,71.91-71.91,71.91h0c0,40.29,33.14,72.84,73.64,71.89
	c38.15-0.9,69.26-32.01,70.15-70.15C334.63,259.08,302.08,225.95,261.79,225.95z M333.7,154.04H189.88v71.91H333.7V154.04z
	 M189.88,297.85H80.74l-34.67,71.91h143.81V297.85z M405.82,154.04L405.82,154.04L405.82,154.04c-39.71,0-71.91,32.19-71.91,71.91
	h71.91v0h0c39.71,0,71.91-32.19,71.91-71.91H405.82z M477.73,297.85c0,39.71-32.19,71.91-71.91,71.91s-71.91-32.19-71.91-71.91
	s32.19-71.91,71.91-71.91S477.73,258.14,477.73,297.85z M407.64,324.32l5.3-11h-28.19l17.19-35.66h28.19l5.3-11h-68.59l-5.3,11
	h28.19l-22.5,46.66H407.64z M450.1,289.99h-40.41l-5.3,11h28.19l-22.5,46.66h12.21L450.1,289.99z"/>
</svg>
